<svg width="30" height="30" viewBox="0 0 30 30" fill="none" xmlns="http://www.w3.org/2000/svg">
<g clip-path="url(#clip0_5_26)">
<path d="M13.1927 2.05664C13.5104 1.36524 13.2708 0.515626 12.6615 0.158205C12.0521 -0.199217 11.2917 0.0703139 10.974 0.755861L6.125 11.25H1.66667C0.744792 11.25 0 12.0879 0 13.125C0 14.1621 0.744792 15 1.66667 15L4.36979 27.1582C4.73958 28.8281 6.07292 30 7.60417 30H22.3958C23.9271 30 25.2604 28.8281 25.6302 27.1582L28.3333 15C29.2552 15 30 14.1621 30 13.125C30 12.0879 29.2552 11.25 28.3333 11.25H23.875L19.026 0.755861C18.7083 0.0703139 17.9531 -0.199217 17.3385 0.158205C16.724 0.515626 16.4896 1.36524 16.8073 2.05664L21.0573 11.25H8.94271L13.1927 2.05664ZM10 17.8125V23.4375C10 23.9531 9.625 24.375 9.16667 24.375C8.70833 24.375 8.33333 23.9531 8.33333 23.4375V17.8125C8.33333 17.2969 8.70833 16.875 9.16667 16.875C9.625 16.875 10 17.2969 10 17.8125ZM15 16.875C15.4583 16.875 15.8333 17.2969 15.8333 17.8125V23.4375C15.8333 23.9531 15.4583 24.375 15 24.375C14.5417 24.375 14.1667 23.9531 14.1667 23.4375V17.8125C14.1667 17.2969 14.5417 16.875 15 16.875ZM21.6667 17.8125V23.4375C21.6667 23.9531 21.2917 24.375 20.8333 24.375C20.375 24.375 20 23.9531 20 23.4375V17.8125C20 17.2969 20.375 16.875 20.8333 16.875C21.2917 16.875 21.6667 17.2969 21.6667 17.8125Z" fill="white"/>
</g>
<defs>
<clipPath id="clip0_5_26">
<rect width="30" height="30" fill="white"/>
</clipPath>
</defs>
</svg>
