<svg width="40" height="40" viewBox="0 0 40 40" fill="none" xmlns="http://www.w3.org/2000/svg">
<path d="M14.2857 6.25C14.2857 4.17969 16.2054 2.5 18.5714 2.5H21.4286C23.7946 2.5 25.7143 4.17969 25.7143 6.25V33.75C25.7143 35.8203 23.7946 37.5 21.4286 37.5H18.5714C16.2054 37.5 14.2857 35.8203 14.2857 33.75V6.25ZM0 21.25C0 19.1797 1.91964 17.5 4.28571 17.5H7.14286C9.50893 17.5 11.4286 19.1797 11.4286 21.25V33.75C11.4286 35.8203 9.50893 37.5 7.14286 37.5H4.28571C1.91964 37.5 0 35.8203 0 33.75V21.25ZM32.8571 7.5H35.7143C38.0804 7.5 40 9.17969 40 11.25V33.75C40 35.8203 38.0804 37.5 35.7143 37.5H32.8571C30.4911 37.5 28.5714 35.8203 28.5714 33.75V11.25C28.5714 9.17969 30.4911 7.5 32.8571 7.5Z" fill="#3E3E3E"/>
</svg>
