<svg width="34" height="33" viewBox="0 0 34 33" fill="none" xmlns="http://www.w3.org/2000/svg">
<g clip-path="url(#clip0_5_30)">
<path d="M5.84375 0C4.96055 0 4.25 0.689648 4.25 1.54688C4.25 4.0541 5.80391 5.37539 6.84648 6.2584L6.91953 6.32285C8.00195 7.23809 8.5 7.72793 8.5 8.76562C8.5 9.62285 9.21055 10.3125 10.0938 10.3125C10.977 10.3125 11.6875 9.62285 11.6875 8.76562C11.6875 6.2584 10.1336 4.93711 9.09101 4.0541L9.01797 3.98965C7.93555 3.07441 7.4375 2.58457 7.4375 1.54688C7.4375 0.689648 6.72695 0 5.84375 0ZM2.125 12.375C0.949609 12.375 0 13.2967 0 14.4375V26.8125C0 30.2285 2.85547 33 6.375 33H19.125C22.6445 33 25.5 30.2285 25.5 26.8125H26.5625C30.673 26.8125 34 23.5834 34 19.5938C34 15.6041 30.673 12.375 26.5625 12.375H23.375H2.125ZM25.5 16.5H26.5625C28.3223 16.5 29.75 17.8857 29.75 19.5938C29.75 21.3018 28.3223 22.6875 26.5625 22.6875H25.5V16.5ZM14.875 1.54688C14.875 0.689648 14.1645 0 13.2812 0C12.398 0 11.6875 0.689648 11.6875 1.54688C11.6875 4.0541 13.2414 5.37539 14.284 6.2584L14.357 6.32285C15.4395 7.23809 15.9375 7.72793 15.9375 8.76562C15.9375 9.62285 16.648 10.3125 17.5312 10.3125C18.4145 10.3125 19.125 9.62285 19.125 8.76562C19.125 6.2584 17.5711 4.93711 16.5285 4.0541L16.4555 3.98965C15.373 3.07441 14.875 2.58457 14.875 1.54688Z" fill="white"/>
</g>
<defs>
<clipPath id="clip0_5_30">
<rect width="34" height="33" fill="white"/>
</clipPath>
</defs>
</svg>
