<svg width="47" height="46" viewBox="0 0 47 46" fill="none" xmlns="http://www.w3.org/2000/svg">
<g clip-path="url(#clip0_5_24)">
<path d="M29.9716 12.3311C31.5875 10.9902 35.4838 9.96491 36.7934 11.5431C38.1405 13.1663 36.377 16.7617 34.7611 18.1026L29.2521 22.6743L31.0856 34.5461C31.1905 35.2205 30.9179 35.9111 30.3745 36.362L27.7193 38.5655C27.2184 38.9811 26.473 38.8231 26.2283 38.2495L22.1225 28.5908L17.2655 32.6214L17.3797 36.9124C17.3876 37.2104 17.2506 37.5068 17.0144 37.7028L15.03 39.3496C14.6615 39.6554 14.1328 39.6144 13.8447 39.2672C13.796 39.2086 13.7569 39.1422 13.7224 39.0718L11.0909 32.8723L5.48292 29.143C5.41538 29.1 5.36201 29.0453 5.31337 28.9867C5.02151 28.635 5.08717 28.1084 5.45098 27.8065L7.43536 26.1598C7.6716 25.9638 7.98818 25.8838 8.2796 25.9465L12.476 26.8499L17.3377 22.8154L8.60164 16.9991C8.07823 16.6568 8.06037 15.895 8.56119 15.4794L11.2165 13.2759C11.7598 12.825 12.4926 12.689 13.1324 12.9119L24.4626 16.9028L29.9716 12.3311Z" fill="white"/>
</g>
<defs>
<clipPath id="clip0_5_24">
<rect width="35.3646" height="30" fill="white" transform="translate(0 22.5839) rotate(-39.6877)"/>
</clipPath>
</defs>
</svg>
