<svg width="40" height="40" viewBox="0 0 40 40" fill="none" xmlns="http://www.w3.org/2000/svg">
<path d="M39.9861 19.9609C39.9861 21.3672 38.9444 22.4688 37.7639 22.4688H35.5417L35.5903 34.9844C35.5903 35.1953 35.5764 35.4062 35.5556 35.6172V36.875C35.5556 38.6016 34.3125 40 32.7778 40H31.6667C31.5903 40 31.5139 40 31.4375 39.9922C31.3403 40 31.2431 40 31.1458 40H28.8889H27.2222C25.6875 40 24.4444 38.6016 24.4444 36.875V35V30C24.4444 28.6172 23.4514 27.5 22.2222 27.5H17.7778C16.5486 27.5 15.5556 28.6172 15.5556 30V35V36.875C15.5556 38.6016 14.3125 40 12.7778 40H11.1111H8.89583C8.79167 40 8.6875 39.9922 8.58333 39.9844C8.5 39.9922 8.41667 40 8.33333 40H7.22222C5.6875 40 4.44444 38.6016 4.44444 36.875V28.125C4.44444 28.0547 4.44444 27.9766 4.45139 27.9062V22.4688H2.22222C0.972222 22.4688 0 21.375 0 19.9609C0 19.2578 0.208333 18.6328 0.694444 18.0859L18.5 0.625C18.9861 0.078125 19.5417 0 20.0278 0C20.5139 0 21.0694 0.15625 21.4861 0.546875L39.2222 18.0859C39.7778 18.6328 40.0556 19.2578 39.9861 19.9609Z" fill="#3E3E3E"/>
</svg>
